<svg class="svg-import"><defs><g id="icon-bullhorn"> <g> </g> <path d="M32 13.414c0-6.279-1.837-11.373-4.109-11.413 0.009-0 0.018-0.001 0.027-0.001h-2.592c0 0-6.088 4.573-14.851 6.367-0.268 1.415-0.438 3.102-0.438 5.047 0 1.945 0.171 3.631 0.438 5.047 8.763 1.794 14.851 6.367 14.851 6.367h2.592c-0.009 0-0.018-0.001-0.027-0.001 2.272-0.040 4.109-5.134 4.109-11.413zM27.026 23.102c-0.293 0-0.61-0.304-0.773-0.486-0.395-0.439-0.775-1.124-1.1-1.979-0.727-1.913-1.127-4.478-1.127-7.223 0-2.744 0.4-5.309 1.127-7.223 0.325-0.855 0.705-1.54 1.1-1.979 0.163-0.182 0.48-0.486 0.773-0.486 0.293 0 0.61 0.304 0.773 0.486 0.395 0.439 0.775 1.124 1.1 1.979 0.727 1.913 1.127 4.479 1.127 7.223 0 2.744-0.4 5.309-1.127 7.223-0.325 0.855-0.705 1.54-1.1 1.979-0.163 0.181-0.48 0.486-0.773 0.486zM7.869 13.414c0-1.623 0.119-3.201 0.345-4.659-1.48 0.205-2.779 0.323-4.386 0.323-2.096 0-2.096 0-2.096 0l-1.733 2.959v2.755l1.733 2.959c0 0 0 0 2.096 0 1.606 0 2.905 0.118 4.386 0.323-0.226-1.458-0.345-3.036-0.345-4.659zM11.505 20.068l-4-0.766 2.558 10.048c0.132 0.52 0.648 0.782 1.146 0.583l3.705-1.483c0.498-0.199 0.698-0.749 0.444-1.221l-3.853-7.161zM27.026 17.148c-0.113 0-0.235-0.117-0.298-0.187-0.152-0.169-0.299-0.433-0.424-0.763-0.28-0.738-0.434-1.726-0.434-2.784 0-1.058 0.154-2.046 0.434-2.784 0.125-0.33 0.272-0.593 0.424-0.763 0.063-0.070 0.185-0.187 0.298-0.187 0.113 0 0.235 0.117 0.298 0.187 0.152 0.169 0.299 0.433 0.424 0.763 0.28 0.737 0.434 1.726 0.434 2.784 0 1.058-0.154 2.046-0.434 2.784-0.125 0.33-0.272 0.593-0.424 0.763-0.063 0.070-0.185 0.187-0.298 0.187z"></path> </g><defs id="icon-combined-icons"><defs id="697a178be4b26caa53d8cddd9ef7611ficon-combined-icons"><defs id="697a178be4b26caa53d8cddd9ef7611f0d5792dd236d5db0221d047406ea16cficon-combined-icons"><defs id="697a178be4b26caa53d8cddd9ef7611f0d5792dd236d5db0221d047406ea16cf6b6d9f1e1345cfb3f5c17fccbab4a657icon-combined-icons"><defs id="697a178be4b26caa53d8cddd9ef7611f0d5792dd236d5db0221d047406ea16cf6b6d9f1e1345cfb3f5c17fccbab4a6576b6a2aa3532c34e38d62f104e614b639icon-combined-icons"><g id="697a178be4b26caa53d8cddd9ef7611f0d5792dd236d5db0221d047406ea16cf6b6d9f1e1345cfb3f5c17fccbab4a6576b6a2aa3532c34e38d62f104e614b6398b7c7cd9c068a2349cd10f931a066d7bicon-facebook"> <g> </g> <path d="M26.667 0h-21.333c-2.933 0-5.334 2.4-5.334 5.334v21.332c0 2.936 2.4 5.334 5.334 5.334l21.333-0c2.934 0 5.333-2.398 5.333-5.334v-21.332c0-2.934-2.399-5.334-5.333-5.334zM27.206 16h-5.206v14h-6v-14h-2.891v-4.58h2.891v-2.975c0-4.042 1.744-6.445 6.496-6.445h5.476v4.955h-4.473c-1.328-0.002-1.492 0.692-1.492 1.985l-0.007 2.48h6l-0.794 4.58z"></path> </g><g id="697a178be4b26caa53d8cddd9ef7611f0d5792dd236d5db0221d047406ea16cf6b6d9f1e1345cfb3f5c17fccbab4a6576b6a2aa3532c34e38d62f104e614b6398b7c7cd9c068a2349cd10f931a066d7bicon-feed"> <g> </g> <path d="M26.667 0h-21.333c-2.934 0-5.334 2.4-5.334 5.334v21.332c0 2.935 2.4 5.334 5.334 5.334h21.333c2.934 0 5.333-2.398 5.333-5.334v-21.332c0-2.934-2.399-5.334-5.333-5.334zM8.717 25.977c-1.499 0-2.717-1.209-2.717-2.707 0-1.49 1.218-2.713 2.717-2.713 1.505 0 2.721 1.223 2.721 2.713-0 1.498-1.216 2.707-2.721 2.707zM15.546 26c0-2.557-0.994-4.963-2.796-6.764-1.804-1.805-4.199-2.801-6.747-2.801v-3.912c7.427 0 13.473 6.045 13.473 13.477l-3.93 0zM22.488 26c0-9.096-7.396-16.498-16.48-16.498v-3.914c11.25 0 20.405 9.16 20.405 20.412l-3.924-0z"></path> </g><g id="697a178be4b26caa53d8cddd9ef7611f0d5792dd236d5db0221d047406ea16cf6b6d9f1e1345cfb3f5c17fccbab4a6576b6a2aa3532c34e38d62f104e614b6398b7c7cd9c068a2349cd10f931a066d7bicon-googleplus"> <g> </g> <path d="M0.025 27.177c-0.008-0.079-0.014-0.158-0.018-0.238 0.004 0.080 0.011 0.159 0.018 0.238zM7.372 17.661c2.875 0.086 4.804-2.897 4.308-6.662-0.497-3.765-3.231-6.787-6.106-6.873-2.876-0.085-4.804 2.796-4.308 6.562 0.496 3.765 3.23 6.887 6.106 6.973zM32 8v-2.666c0-2.934-2.399-5.334-5.333-5.334h-21.333c-2.884 0-5.25 2.32-5.33 5.185 1.824-1.606 4.354-2.947 6.965-2.947 2.791 0 11.164 0 11.164 0l-2.498 2.113h-3.54c2.348 0.9 3.599 3.629 3.599 6.429 0 2.351-1.307 4.374-3.153 5.812-1.801 1.403-2.143 1.991-2.143 3.184 0 1.018 1.93 2.75 2.938 3.462 2.949 2.079 3.904 4.010 3.904 7.233 0 0.513-0.064 1.026-0.19 1.53h9.617c2.934 0 5.333-2.398 5.333-5.334v-16.666h-6v6h-2v-6h-6v-2h6v-6h2v6h6zM5.809 23.936c0.675 0 1.294-0.018 1.936-0.018-0.848-0.823-1.52-1.831-1.52-3.074 0-0.738 0.236-1.448 0.567-2.079-0.337 0.024-0.681 0.031-1.035 0.031-2.324 0-4.297-0.752-5.756-1.995v2.101l0 6.304c1.67-0.793 3.653-1.269 5.809-1.269zM0.107 27.727c-0.035-0.171-0.061-0.344-0.079-0.52 0.018 0.176 0.045 0.349 0.079 0.52zM14.233 29.776c-0.471-1.838-2.139-2.749-4.465-4.361-0.846-0.273-1.778-0.434-2.778-0.444-2.801-0.030-5.41 1.092-6.882 2.762 0.498 2.428 2.657 4.267 5.226 4.267h8.951c0.057-0.348 0.084-0.707 0.084-1.076 0-0.392-0.048-0.775-0.137-1.148z"></path> </g><g id="697a178be4b26caa53d8cddd9ef7611f0d5792dd236d5db0221d047406ea16cf6b6d9f1e1345cfb3f5c17fccbab4a6576b6a2aa3532c34e38d62f104e614b6398b7c7cd9c068a2349cd10f931a066d7bicon-linkedin"> <g> </g> <path d="M26.625 0h-21.25c-2.956 0-5.375 2.419-5.375 5.375v21.25c0 2.956 2.419 5.375 5.375 5.375h21.25c2.956 0 5.375-2.419 5.375-5.375v-21.25c0-2.956-2.419-5.375-5.375-5.375zM12 26h-4v-14h4v14zM10 10c-1.105 0-2-0.895-2-2s0.895-2 2-2 2 0.895 2 2-0.895 2-2 2zM26 26h-4v-8c0-1.105-0.895-2-2-2s-2 0.895-2 2v8h-4v-14h4v2.483c0.825-1.133 2.086-2.483 3.5-2.483 2.485 0 4.5 2.239 4.5 5v9z"></path> </g><g id="697a178be4b26caa53d8cddd9ef7611f0d5792dd236d5db0221d047406ea16cf6b6d9f1e1345cfb3f5c17fccbab4a6576b6a2aa3532c34e38d62f104e614b6398b7c7cd9c068a2349cd10f931a066d7bicon-reddit"> <g> </g> <path d="M8 20c0-1.105 0.895-2 2-2s2 0.895 2 2c0 1.105-0.895 2-2 2-1.105 0-2-0.895-2-2zM20 20c0-1.105 0.895-2 2-2s2 0.895 2 2c0 1.105-0.895 2-2 2-1.105 0-2-0.895-2-2zM20.097 24.274c0.515-0.406 1.262-0.317 1.668 0.198 0.406 0.515 0.317 1.262-0.198 1.668-1.434 1.13-3.619 1.86-5.567 1.86-1.948 0-4.133-0.73-5.567-1.86-0.515-0.406-0.604-1.153-0.198-1.668 0.406-0.515 1.153-0.604 1.668-0.198 0.826 0.651 2.46 1.351 4.097 1.351 1.637 0 3.271-0.7 4.097-1.351zM32 16c0-2.209-1.791-4-4-4-1.504 0-2.812 0.83-3.495 2.057-2.056-1.125-4.561-1.851-7.29-2.019l2.387-5.36 4.569 1.319c0.411 1.167 1.522 2.004 2.83 2.004 1.657 0 3-1.343 3-3s-1.343-3-3-3c-1.142 0-2.136 0.639-2.642 1.579l-5.091-1.47c-0.57-0.164-1.173 0.116-1.414 0.658l-3.243 7.282c-2.661 0.187-5.102 0.907-7.114 2.007-0.683-1.227-1.993-2.056-3.496-2.056-2.209 0-4 1.791-4 4 0 1.635 0.981 3.039 2.387 3.659-0.252 0.751-0.387 1.535-0.387 2.341 0 5.523 6.268 10 14 10 7.732 0 14-4.477 14-10 0-0.806-0.134-1.589-0.387-2.34 1.405-0.62 2.387-2.025 2.387-3.66zM27 5.875c0.621 0 1.125 0.504 1.125 1.125s-0.504 1.125-1.125 1.125-1.125-0.504-1.125-1.125 0.504-1.125 1.125-1.125zM2 16c0-1.103 0.897-2 2-2 0.797 0 1.487 0.469 1.808 1.145-1.045 0.793-1.911 1.707-2.552 2.711-0.735-0.296-1.256-1.016-1.256-1.856zM16 29.625c-6.42 0-11.625-3.414-11.625-7.625s5.205-7.625 11.625-7.625c6.42 0 11.625 3.414 11.625 7.625s-5.205 7.625-11.625 7.625zM28.744 17.856c-0.641-1.003-1.507-1.918-2.552-2.711 0.321-0.676 1.011-1.145 1.808-1.145 1.103 0 2 0.897 2 2 0 0.84-0.52 1.56-1.256 1.856z"></path> </g><g id="697a178be4b26caa53d8cddd9ef7611f0d5792dd236d5db0221d047406ea16cf6b6d9f1e1345cfb3f5c17fccbab4a6576b6a2aa3532c34e38d62f104e614b6398b7c7cd9c068a2349cd10f931a066d7bicon-tumblr"> <g> </g> <path d="M26.668 0h-21.334c-2.934 0-5.334 2.4-5.334 5.334v21.332c0 2.936 2.4 5.334 5.334 5.334h21.334c2.933 0 5.332-2.398 5.332-5.334v-21.332c-0-2.933-2.399-5.334-5.332-5.334zM22.866 25.771c-0.942 0.443-1.798 0.756-2.563 0.936-0.765 0.178-1.593 0.267-2.481 0.267-1.010 0-1.605-0.127-2.381-0.381-0.775-0.256-1.438-0.621-1.984-1.090-0.549-0.473-0.928-0.975-1.14-1.506-0.212-0.531-0.317-1.303-0.317-2.313v-7.744h-3v-3.127c0.867-0.281 1.873-0.685 2.49-1.211 0.62-0.527 1.116-1.158 1.49-1.896 0.375-0.736 0.633-1.676 0.774-2.815h3.141v5.108h5.105v3.941h-5.106v5.662c0 1.281-0.017 2.020 0.119 2.383 0.135 0.361 0.473 0.736 0.841 0.953 0.489 0.293 1.047 0.439 1.676 0.439 1.118 0 2.231-0.363 3.336-1.090v3.482z"></path> </g><g id="697a178be4b26caa53d8cddd9ef7611f0d5792dd236d5db0221d047406ea16cf6b6d9f1e1345cfb3f5c17fccbab4a6576b6a2aa3532c34e38d62f104e614b6398b7c7cd9c068a2349cd10f931a066d7bicon-twitter"> <g> </g> <path d="M32 6.076c-1.177 0.522-2.443 0.875-3.771 1.034 1.355-0.813 2.396-2.099 2.887-3.632-1.269 0.752-2.674 1.299-4.169 1.593-1.198-1.276-2.904-2.073-4.792-2.073-3.626 0-6.565 2.939-6.565 6.565 0 0.515 0.058 1.016 0.17 1.496-5.456-0.274-10.294-2.888-13.532-6.86-0.565 0.97-0.889 2.097-0.889 3.301 0 2.278 1.159 4.287 2.921 5.465-1.076-0.034-2.088-0.329-2.974-0.821-0.001 0.027-0.001 0.055-0.001 0.083 0 3.181 2.263 5.834 5.266 6.437-0.551 0.15-1.131 0.23-1.73 0.23-0.423 0-0.834-0.041-1.235-0.118 0.835 2.608 3.26 4.506 6.133 4.559-2.247 1.761-5.078 2.81-8.154 2.81-0.53 0-1.052-0.031-1.566-0.092 2.905 1.863 6.356 2.95 10.064 2.95 12.076 0 18.679-10.004 18.679-18.68 0-0.285-0.006-0.568-0.019-0.849 1.283-0.926 2.396-2.082 3.276-3.398z"></path> </g></defs><g id="697a178be4b26caa53d8cddd9ef7611f0d5792dd236d5db0221d047406ea16cf6b6d9f1e1345cfb3f5c17fccbab4a6576b6a2aa3532c34e38d62f104e614b639icon-facebook"> <g> </g> <path d="M26.667 0h-21.333c-2.933 0-5.334 2.4-5.334 5.334v21.332c0 2.936 2.4 5.334 5.334 5.334l21.333-0c2.934 0 5.333-2.398 5.333-5.334v-21.332c0-2.934-2.399-5.334-5.333-5.334zM27.206 16h-5.206v14h-6v-14h-2.891v-4.58h2.891v-2.975c0-4.042 1.744-6.445 6.496-6.445h5.476v4.955h-4.473c-1.328-0.002-1.492 0.692-1.492 1.985l-0.007 2.48h6l-0.794 4.58z"></path> </g><g id="697a178be4b26caa53d8cddd9ef7611f0d5792dd236d5db0221d047406ea16cf6b6d9f1e1345cfb3f5c17fccbab4a6576b6a2aa3532c34e38d62f104e614b639icon-feed"> <g> </g> <path d="M26.667 0h-21.333c-2.934 0-5.334 2.4-5.334 5.334v21.332c0 2.935 2.4 5.334 5.334 5.334h21.333c2.934 0 5.333-2.398 5.333-5.334v-21.332c0-2.934-2.399-5.334-5.333-5.334zM8.717 25.977c-1.499 0-2.717-1.209-2.717-2.707 0-1.49 1.218-2.713 2.717-2.713 1.505 0 2.721 1.223 2.721 2.713-0 1.498-1.216 2.707-2.721 2.707zM15.546 26c0-2.557-0.994-4.963-2.796-6.764-1.804-1.805-4.199-2.801-6.747-2.801v-3.912c7.427 0 13.473 6.045 13.473 13.477l-3.93 0zM22.488 26c0-9.096-7.396-16.498-16.48-16.498v-3.914c11.25 0 20.405 9.16 20.405 20.412l-3.924-0z"></path> </g><g id="697a178be4b26caa53d8cddd9ef7611f0d5792dd236d5db0221d047406ea16cf6b6d9f1e1345cfb3f5c17fccbab4a6576b6a2aa3532c34e38d62f104e614b639icon-googleplus"> <g> </g> <path d="M0.025 27.177c-0.008-0.079-0.014-0.158-0.018-0.238 0.004 0.080 0.011 0.159 0.018 0.238zM7.372 17.661c2.875 0.086 4.804-2.897 4.308-6.662-0.497-3.765-3.231-6.787-6.106-6.873-2.876-0.085-4.804 2.796-4.308 6.562 0.496 3.765 3.23 6.887 6.106 6.973zM32 8v-2.666c0-2.934-2.399-5.334-5.333-5.334h-21.333c-2.884 0-5.25 2.32-5.33 5.185 1.824-1.606 4.354-2.947 6.965-2.947 2.791 0 11.164 0 11.164 0l-2.498 2.113h-3.54c2.348 0.9 3.599 3.629 3.599 6.429 0 2.351-1.307 4.374-3.153 5.812-1.801 1.403-2.143 1.991-2.143 3.184 0 1.018 1.93 2.75 2.938 3.462 2.949 2.079 3.904 4.010 3.904 7.233 0 0.513-0.064 1.026-0.19 1.53h9.617c2.934 0 5.333-2.398 5.333-5.334v-16.666h-6v6h-2v-6h-6v-2h6v-6h2v6h6zM5.809 23.936c0.675 0 1.294-0.018 1.936-0.018-0.848-0.823-1.52-1.831-1.52-3.074 0-0.738 0.236-1.448 0.567-2.079-0.337 0.024-0.681 0.031-1.035 0.031-2.324 0-4.297-0.752-5.756-1.995v2.101l0 6.304c1.67-0.793 3.653-1.269 5.809-1.269zM0.107 27.727c-0.035-0.171-0.061-0.344-0.079-0.52 0.018 0.176 0.045 0.349 0.079 0.52zM14.233 29.776c-0.471-1.838-2.139-2.749-4.465-4.361-0.846-0.273-1.778-0.434-2.778-0.444-2.801-0.030-5.41 1.092-6.882 2.762 0.498 2.428 2.657 4.267 5.226 4.267h8.951c0.057-0.348 0.084-0.707 0.084-1.076 0-0.392-0.048-0.775-0.137-1.148z"></path> </g><g id="697a178be4b26caa53d8cddd9ef7611f0d5792dd236d5db0221d047406ea16cf6b6d9f1e1345cfb3f5c17fccbab4a6576b6a2aa3532c34e38d62f104e614b639icon-linkedin"> <g> </g> <path d="M26.625 0h-21.25c-2.956 0-5.375 2.419-5.375 5.375v21.25c0 2.956 2.419 5.375 5.375 5.375h21.25c2.956 0 5.375-2.419 5.375-5.375v-21.25c0-2.956-2.419-5.375-5.375-5.375zM12 26h-4v-14h4v14zM10 10c-1.105 0-2-0.895-2-2s0.895-2 2-2 2 0.895 2 2-0.895 2-2 2zM26 26h-4v-8c0-1.105-0.895-2-2-2s-2 0.895-2 2v8h-4v-14h4v2.483c0.825-1.133 2.086-2.483 3.5-2.483 2.485 0 4.5 2.239 4.5 5v9z"></path> </g><g id="697a178be4b26caa53d8cddd9ef7611f0d5792dd236d5db0221d047406ea16cf6b6d9f1e1345cfb3f5c17fccbab4a6576b6a2aa3532c34e38d62f104e614b639icon-reddit"> <g> </g> <path d="M8 20c0-1.105 0.895-2 2-2s2 0.895 2 2c0 1.105-0.895 2-2 2-1.105 0-2-0.895-2-2zM20 20c0-1.105 0.895-2 2-2s2 0.895 2 2c0 1.105-0.895 2-2 2-1.105 0-2-0.895-2-2zM20.097 24.274c0.515-0.406 1.262-0.317 1.668 0.198 0.406 0.515 0.317 1.262-0.198 1.668-1.434 1.13-3.619 1.86-5.567 1.86-1.948 0-4.133-0.73-5.567-1.86-0.515-0.406-0.604-1.153-0.198-1.668 0.406-0.515 1.153-0.604 1.668-0.198 0.826 0.651 2.46 1.351 4.097 1.351 1.637 0 3.271-0.7 4.097-1.351zM32 16c0-2.209-1.791-4-4-4-1.504 0-2.812 0.83-3.495 2.057-2.056-1.125-4.561-1.851-7.29-2.019l2.387-5.36 4.569 1.319c0.411 1.167 1.522 2.004 2.83 2.004 1.657 0 3-1.343 3-3s-1.343-3-3-3c-1.142 0-2.136 0.639-2.642 1.579l-5.091-1.47c-0.57-0.164-1.173 0.116-1.414 0.658l-3.243 7.282c-2.661 0.187-5.102 0.907-7.114 2.007-0.683-1.227-1.993-2.056-3.496-2.056-2.209 0-4 1.791-4 4 0 1.635 0.981 3.039 2.387 3.659-0.252 0.751-0.387 1.535-0.387 2.341 0 5.523 6.268 10 14 10 7.732 0 14-4.477 14-10 0-0.806-0.134-1.589-0.387-2.34 1.405-0.62 2.387-2.025 2.387-3.66zM27 5.875c0.621 0 1.125 0.504 1.125 1.125s-0.504 1.125-1.125 1.125-1.125-0.504-1.125-1.125 0.504-1.125 1.125-1.125zM2 16c0-1.103 0.897-2 2-2 0.797 0 1.487 0.469 1.808 1.145-1.045 0.793-1.911 1.707-2.552 2.711-0.735-0.296-1.256-1.016-1.256-1.856zM16 29.625c-6.42 0-11.625-3.414-11.625-7.625s5.205-7.625 11.625-7.625c6.42 0 11.625 3.414 11.625 7.625s-5.205 7.625-11.625 7.625zM28.744 17.856c-0.641-1.003-1.507-1.918-2.552-2.711 0.321-0.676 1.011-1.145 1.808-1.145 1.103 0 2 0.897 2 2 0 0.84-0.52 1.56-1.256 1.856z"></path> </g><g id="697a178be4b26caa53d8cddd9ef7611f0d5792dd236d5db0221d047406ea16cf6b6d9f1e1345cfb3f5c17fccbab4a6576b6a2aa3532c34e38d62f104e614b639icon-tumblr"> <g> </g> <path d="M26.668 0h-21.334c-2.934 0-5.334 2.4-5.334 5.334v21.332c0 2.936 2.4 5.334 5.334 5.334h21.334c2.933 0 5.332-2.398 5.332-5.334v-21.332c-0-2.933-2.399-5.334-5.332-5.334zM22.866 25.771c-0.942 0.443-1.798 0.756-2.563 0.936-0.765 0.178-1.593 0.267-2.481 0.267-1.010 0-1.605-0.127-2.381-0.381-0.775-0.256-1.438-0.621-1.984-1.090-0.549-0.473-0.928-0.975-1.14-1.506-0.212-0.531-0.317-1.303-0.317-2.313v-7.744h-3v-3.127c0.867-0.281 1.873-0.685 2.49-1.211 0.62-0.527 1.116-1.158 1.49-1.896 0.375-0.736 0.633-1.676 0.774-2.815h3.141v5.108h5.105v3.941h-5.106v5.662c0 1.281-0.017 2.020 0.119 2.383 0.135 0.361 0.473 0.736 0.841 0.953 0.489 0.293 1.047 0.439 1.676 0.439 1.118 0 2.231-0.363 3.336-1.090v3.482z"></path> </g><g id="697a178be4b26caa53d8cddd9ef7611f0d5792dd236d5db0221d047406ea16cf6b6d9f1e1345cfb3f5c17fccbab4a6576b6a2aa3532c34e38d62f104e614b639icon-twitter"> <g> </g> <path d="M32 6.076c-1.177 0.522-2.443 0.875-3.771 1.034 1.355-0.813 2.396-2.099 2.887-3.632-1.269 0.752-2.674 1.299-4.169 1.593-1.198-1.276-2.904-2.073-4.792-2.073-3.626 0-6.565 2.939-6.565 6.565 0 0.515 0.058 1.016 0.17 1.496-5.456-0.274-10.294-2.888-13.532-6.86-0.565 0.97-0.889 2.097-0.889 3.301 0 2.278 1.159 4.287 2.921 5.465-1.076-0.034-2.088-0.329-2.974-0.821-0.001 0.027-0.001 0.055-0.001 0.083 0 3.181 2.263 5.834 5.266 6.437-0.551 0.15-1.131 0.23-1.73 0.23-0.423 0-0.834-0.041-1.235-0.118 0.835 2.608 3.26 4.506 6.133 4.559-2.247 1.761-5.078 2.81-8.154 2.81-0.53 0-1.052-0.031-1.566-0.092 2.905 1.863 6.356 2.95 10.064 2.95 12.076 0 18.679-10.004 18.679-18.68 0-0.285-0.006-0.568-0.019-0.849 1.283-0.926 2.396-2.082 3.276-3.398z"></path> </g></defs><g id="697a178be4b26caa53d8cddd9ef7611f0d5792dd236d5db0221d047406ea16cf6b6d9f1e1345cfb3f5c17fccbab4a657icon-facebook"> <g> </g> <path d="M26.667 0h-21.333c-2.933 0-5.334 2.4-5.334 5.334v21.332c0 2.936 2.4 5.334 5.334 5.334l21.333-0c2.934 0 5.333-2.398 5.333-5.334v-21.332c0-2.934-2.399-5.334-5.333-5.334zM27.206 16h-5.206v14h-6v-14h-2.891v-4.58h2.891v-2.975c0-4.042 1.744-6.445 6.496-6.445h5.476v4.955h-4.473c-1.328-0.002-1.492 0.692-1.492 1.985l-0.007 2.48h6l-0.794 4.58z"></path> </g><g id="697a178be4b26caa53d8cddd9ef7611f0d5792dd236d5db0221d047406ea16cf6b6d9f1e1345cfb3f5c17fccbab4a657icon-feed"> <g> </g> <path d="M26.667 0h-21.333c-2.934 0-5.334 2.4-5.334 5.334v21.332c0 2.935 2.4 5.334 5.334 5.334h21.333c2.934 0 5.333-2.398 5.333-5.334v-21.332c0-2.934-2.399-5.334-5.333-5.334zM8.717 25.977c-1.499 0-2.717-1.209-2.717-2.707 0-1.49 1.218-2.713 2.717-2.713 1.505 0 2.721 1.223 2.721 2.713-0 1.498-1.216 2.707-2.721 2.707zM15.546 26c0-2.557-0.994-4.963-2.796-6.764-1.804-1.805-4.199-2.801-6.747-2.801v-3.912c7.427 0 13.473 6.045 13.473 13.477l-3.93 0zM22.488 26c0-9.096-7.396-16.498-16.48-16.498v-3.914c11.25 0 20.405 9.16 20.405 20.412l-3.924-0z"></path> </g><g id="697a178be4b26caa53d8cddd9ef7611f0d5792dd236d5db0221d047406ea16cf6b6d9f1e1345cfb3f5c17fccbab4a657icon-googleplus"> <g> </g> <path d="M0.025 27.177c-0.008-0.079-0.014-0.158-0.018-0.238 0.004 0.080 0.011 0.159 0.018 0.238zM7.372 17.661c2.875 0.086 4.804-2.897 4.308-6.662-0.497-3.765-3.231-6.787-6.106-6.873-2.876-0.085-4.804 2.796-4.308 6.562 0.496 3.765 3.23 6.887 6.106 6.973zM32 8v-2.666c0-2.934-2.399-5.334-5.333-5.334h-21.333c-2.884 0-5.25 2.32-5.33 5.185 1.824-1.606 4.354-2.947 6.965-2.947 2.791 0 11.164 0 11.164 0l-2.498 2.113h-3.54c2.348 0.9 3.599 3.629 3.599 6.429 0 2.351-1.307 4.374-3.153 5.812-1.801 1.403-2.143 1.991-2.143 3.184 0 1.018 1.93 2.75 2.938 3.462 2.949 2.079 3.904 4.010 3.904 7.233 0 0.513-0.064 1.026-0.19 1.53h9.617c2.934 0 5.333-2.398 5.333-5.334v-16.666h-6v6h-2v-6h-6v-2h6v-6h2v6h6zM5.809 23.936c0.675 0 1.294-0.018 1.936-0.018-0.848-0.823-1.52-1.831-1.52-3.074 0-0.738 0.236-1.448 0.567-2.079-0.337 0.024-0.681 0.031-1.035 0.031-2.324 0-4.297-0.752-5.756-1.995v2.101l0 6.304c1.67-0.793 3.653-1.269 5.809-1.269zM0.107 27.727c-0.035-0.171-0.061-0.344-0.079-0.52 0.018 0.176 0.045 0.349 0.079 0.52zM14.233 29.776c-0.471-1.838-2.139-2.749-4.465-4.361-0.846-0.273-1.778-0.434-2.778-0.444-2.801-0.030-5.41 1.092-6.882 2.762 0.498 2.428 2.657 4.267 5.226 4.267h8.951c0.057-0.348 0.084-0.707 0.084-1.076 0-0.392-0.048-0.775-0.137-1.148z"></path> </g><g id="697a178be4b26caa53d8cddd9ef7611f0d5792dd236d5db0221d047406ea16cf6b6d9f1e1345cfb3f5c17fccbab4a657icon-linkedin"> <g> </g> <path d="M26.625 0h-21.25c-2.956 0-5.375 2.419-5.375 5.375v21.25c0 2.956 2.419 5.375 5.375 5.375h21.25c2.956 0 5.375-2.419 5.375-5.375v-21.25c0-2.956-2.419-5.375-5.375-5.375zM12 26h-4v-14h4v14zM10 10c-1.105 0-2-0.895-2-2s0.895-2 2-2 2 0.895 2 2-0.895 2-2 2zM26 26h-4v-8c0-1.105-0.895-2-2-2s-2 0.895-2 2v8h-4v-14h4v2.483c0.825-1.133 2.086-2.483 3.5-2.483 2.485 0 4.5 2.239 4.5 5v9z"></path> </g><g id="697a178be4b26caa53d8cddd9ef7611f0d5792dd236d5db0221d047406ea16cf6b6d9f1e1345cfb3f5c17fccbab4a657icon-reddit"> <g> </g> <path d="M8 20c0-1.105 0.895-2 2-2s2 0.895 2 2c0 1.105-0.895 2-2 2-1.105 0-2-0.895-2-2zM20 20c0-1.105 0.895-2 2-2s2 0.895 2 2c0 1.105-0.895 2-2 2-1.105 0-2-0.895-2-2zM20.097 24.274c0.515-0.406 1.262-0.317 1.668 0.198 0.406 0.515 0.317 1.262-0.198 1.668-1.434 1.13-3.619 1.86-5.567 1.86-1.948 0-4.133-0.73-5.567-1.86-0.515-0.406-0.604-1.153-0.198-1.668 0.406-0.515 1.153-0.604 1.668-0.198 0.826 0.651 2.46 1.351 4.097 1.351 1.637 0 3.271-0.7 4.097-1.351zM32 16c0-2.209-1.791-4-4-4-1.504 0-2.812 0.83-3.495 2.057-2.056-1.125-4.561-1.851-7.29-2.019l2.387-5.36 4.569 1.319c0.411 1.167 1.522 2.004 2.83 2.004 1.657 0 3-1.343 3-3s-1.343-3-3-3c-1.142 0-2.136 0.639-2.642 1.579l-5.091-1.47c-0.57-0.164-1.173 0.116-1.414 0.658l-3.243 7.282c-2.661 0.187-5.102 0.907-7.114 2.007-0.683-1.227-1.993-2.056-3.496-2.056-2.209 0-4 1.791-4 4 0 1.635 0.981 3.039 2.387 3.659-0.252 0.751-0.387 1.535-0.387 2.341 0 5.523 6.268 10 14 10 7.732 0 14-4.477 14-10 0-0.806-0.134-1.589-0.387-2.34 1.405-0.62 2.387-2.025 2.387-3.66zM27 5.875c0.621 0 1.125 0.504 1.125 1.125s-0.504 1.125-1.125 1.125-1.125-0.504-1.125-1.125 0.504-1.125 1.125-1.125zM2 16c0-1.103 0.897-2 2-2 0.797 0 1.487 0.469 1.808 1.145-1.045 0.793-1.911 1.707-2.552 2.711-0.735-0.296-1.256-1.016-1.256-1.856zM16 29.625c-6.42 0-11.625-3.414-11.625-7.625s5.205-7.625 11.625-7.625c6.42 0 11.625 3.414 11.625 7.625s-5.205 7.625-11.625 7.625zM28.744 17.856c-0.641-1.003-1.507-1.918-2.552-2.711 0.321-0.676 1.011-1.145 1.808-1.145 1.103 0 2 0.897 2 2 0 0.84-0.52 1.56-1.256 1.856z"></path> </g><g id="697a178be4b26caa53d8cddd9ef7611f0d5792dd236d5db0221d047406ea16cf6b6d9f1e1345cfb3f5c17fccbab4a657icon-tumblr"> <g> </g> <path d="M26.668 0h-21.334c-2.934 0-5.334 2.4-5.334 5.334v21.332c0 2.936 2.4 5.334 5.334 5.334h21.334c2.933 0 5.332-2.398 5.332-5.334v-21.332c-0-2.933-2.399-5.334-5.332-5.334zM22.866 25.771c-0.942 0.443-1.798 0.756-2.563 0.936-0.765 0.178-1.593 0.267-2.481 0.267-1.010 0-1.605-0.127-2.381-0.381-0.775-0.256-1.438-0.621-1.984-1.090-0.549-0.473-0.928-0.975-1.14-1.506-0.212-0.531-0.317-1.303-0.317-2.313v-7.744h-3v-3.127c0.867-0.281 1.873-0.685 2.49-1.211 0.62-0.527 1.116-1.158 1.49-1.896 0.375-0.736 0.633-1.676 0.774-2.815h3.141v5.108h5.105v3.941h-5.106v5.662c0 1.281-0.017 2.020 0.119 2.383 0.135 0.361 0.473 0.736 0.841 0.953 0.489 0.293 1.047 0.439 1.676 0.439 1.118 0 2.231-0.363 3.336-1.090v3.482z"></path> </g><g id="697a178be4b26caa53d8cddd9ef7611f0d5792dd236d5db0221d047406ea16cf6b6d9f1e1345cfb3f5c17fccbab4a657icon-twitter"> <g> </g> <path d="M32 6.076c-1.177 0.522-2.443 0.875-3.771 1.034 1.355-0.813 2.396-2.099 2.887-3.632-1.269 0.752-2.674 1.299-4.169 1.593-1.198-1.276-2.904-2.073-4.792-2.073-3.626 0-6.565 2.939-6.565 6.565 0 0.515 0.058 1.016 0.17 1.496-5.456-0.274-10.294-2.888-13.532-6.86-0.565 0.97-0.889 2.097-0.889 3.301 0 2.278 1.159 4.287 2.921 5.465-1.076-0.034-2.088-0.329-2.974-0.821-0.001 0.027-0.001 0.055-0.001 0.083 0 3.181 2.263 5.834 5.266 6.437-0.551 0.15-1.131 0.23-1.73 0.23-0.423 0-0.834-0.041-1.235-0.118 0.835 2.608 3.26 4.506 6.133 4.559-2.247 1.761-5.078 2.81-8.154 2.81-0.53 0-1.052-0.031-1.566-0.092 2.905 1.863 6.356 2.95 10.064 2.95 12.076 0 18.679-10.004 18.679-18.68 0-0.285-0.006-0.568-0.019-0.849 1.283-0.926 2.396-2.082 3.276-3.398z"></path> </g></defs><g id="697a178be4b26caa53d8cddd9ef7611f0d5792dd236d5db0221d047406ea16cficon-facebook"> <g> </g> <path d="M26.667 0h-21.333c-2.933 0-5.334 2.4-5.334 5.334v21.332c0 2.936 2.4 5.334 5.334 5.334l21.333-0c2.934 0 5.333-2.398 5.333-5.334v-21.332c0-2.934-2.399-5.334-5.333-5.334zM27.206 16h-5.206v14h-6v-14h-2.891v-4.58h2.891v-2.975c0-4.042 1.744-6.445 6.496-6.445h5.476v4.955h-4.473c-1.328-0.002-1.492 0.692-1.492 1.985l-0.007 2.48h6l-0.794 4.58z"></path> </g><g id="697a178be4b26caa53d8cddd9ef7611f0d5792dd236d5db0221d047406ea16cficon-feed"> <g> </g> <path d="M26.667 0h-21.333c-2.934 0-5.334 2.4-5.334 5.334v21.332c0 2.935 2.4 5.334 5.334 5.334h21.333c2.934 0 5.333-2.398 5.333-5.334v-21.332c0-2.934-2.399-5.334-5.333-5.334zM8.717 25.977c-1.499 0-2.717-1.209-2.717-2.707 0-1.49 1.218-2.713 2.717-2.713 1.505 0 2.721 1.223 2.721 2.713-0 1.498-1.216 2.707-2.721 2.707zM15.546 26c0-2.557-0.994-4.963-2.796-6.764-1.804-1.805-4.199-2.801-6.747-2.801v-3.912c7.427 0 13.473 6.045 13.473 13.477l-3.93 0zM22.488 26c0-9.096-7.396-16.498-16.48-16.498v-3.914c11.25 0 20.405 9.16 20.405 20.412l-3.924-0z"></path> </g><g id="697a178be4b26caa53d8cddd9ef7611f0d5792dd236d5db0221d047406ea16cficon-googleplus"> <g> </g> <path d="M0.025 27.177c-0.008-0.079-0.014-0.158-0.018-0.238 0.004 0.080 0.011 0.159 0.018 0.238zM7.372 17.661c2.875 0.086 4.804-2.897 4.308-6.662-0.497-3.765-3.231-6.787-6.106-6.873-2.876-0.085-4.804 2.796-4.308 6.562 0.496 3.765 3.23 6.887 6.106 6.973zM32 8v-2.666c0-2.934-2.399-5.334-5.333-5.334h-21.333c-2.884 0-5.25 2.32-5.33 5.185 1.824-1.606 4.354-2.947 6.965-2.947 2.791 0 11.164 0 11.164 0l-2.498 2.113h-3.54c2.348 0.9 3.599 3.629 3.599 6.429 0 2.351-1.307 4.374-3.153 5.812-1.801 1.403-2.143 1.991-2.143 3.184 0 1.018 1.93 2.75 2.938 3.462 2.949 2.079 3.904 4.010 3.904 7.233 0 0.513-0.064 1.026-0.19 1.53h9.617c2.934 0 5.333-2.398 5.333-5.334v-16.666h-6v6h-2v-6h-6v-2h6v-6h2v6h6zM5.809 23.936c0.675 0 1.294-0.018 1.936-0.018-0.848-0.823-1.52-1.831-1.52-3.074 0-0.738 0.236-1.448 0.567-2.079-0.337 0.024-0.681 0.031-1.035 0.031-2.324 0-4.297-0.752-5.756-1.995v2.101l0 6.304c1.67-0.793 3.653-1.269 5.809-1.269zM0.107 27.727c-0.035-0.171-0.061-0.344-0.079-0.52 0.018 0.176 0.045 0.349 0.079 0.52zM14.233 29.776c-0.471-1.838-2.139-2.749-4.465-4.361-0.846-0.273-1.778-0.434-2.778-0.444-2.801-0.030-5.41 1.092-6.882 2.762 0.498 2.428 2.657 4.267 5.226 4.267h8.951c0.057-0.348 0.084-0.707 0.084-1.076 0-0.392-0.048-0.775-0.137-1.148z"></path> </g><g id="697a178be4b26caa53d8cddd9ef7611f0d5792dd236d5db0221d047406ea16cficon-linkedin"> <g> </g> <path d="M26.625 0h-21.25c-2.956 0-5.375 2.419-5.375 5.375v21.25c0 2.956 2.419 5.375 5.375 5.375h21.25c2.956 0 5.375-2.419 5.375-5.375v-21.25c0-2.956-2.419-5.375-5.375-5.375zM12 26h-4v-14h4v14zM10 10c-1.105 0-2-0.895-2-2s0.895-2 2-2 2 0.895 2 2-0.895 2-2 2zM26 26h-4v-8c0-1.105-0.895-2-2-2s-2 0.895-2 2v8h-4v-14h4v2.483c0.825-1.133 2.086-2.483 3.5-2.483 2.485 0 4.5 2.239 4.5 5v9z"></path> </g><g id="697a178be4b26caa53d8cddd9ef7611f0d5792dd236d5db0221d047406ea16cficon-reddit"> <g> </g> <path d="M8 20c0-1.105 0.895-2 2-2s2 0.895 2 2c0 1.105-0.895 2-2 2-1.105 0-2-0.895-2-2zM20 20c0-1.105 0.895-2 2-2s2 0.895 2 2c0 1.105-0.895 2-2 2-1.105 0-2-0.895-2-2zM20.097 24.274c0.515-0.406 1.262-0.317 1.668 0.198 0.406 0.515 0.317 1.262-0.198 1.668-1.434 1.13-3.619 1.86-5.567 1.86-1.948 0-4.133-0.73-5.567-1.86-0.515-0.406-0.604-1.153-0.198-1.668 0.406-0.515 1.153-0.604 1.668-0.198 0.826 0.651 2.46 1.351 4.097 1.351 1.637 0 3.271-0.7 4.097-1.351zM32 16c0-2.209-1.791-4-4-4-1.504 0-2.812 0.83-3.495 2.057-2.056-1.125-4.561-1.851-7.29-2.019l2.387-5.36 4.569 1.319c0.411 1.167 1.522 2.004 2.83 2.004 1.657 0 3-1.343 3-3s-1.343-3-3-3c-1.142 0-2.136 0.639-2.642 1.579l-5.091-1.47c-0.57-0.164-1.173 0.116-1.414 0.658l-3.243 7.282c-2.661 0.187-5.102 0.907-7.114 2.007-0.683-1.227-1.993-2.056-3.496-2.056-2.209 0-4 1.791-4 4 0 1.635 0.981 3.039 2.387 3.659-0.252 0.751-0.387 1.535-0.387 2.341 0 5.523 6.268 10 14 10 7.732 0 14-4.477 14-10 0-0.806-0.134-1.589-0.387-2.34 1.405-0.62 2.387-2.025 2.387-3.66zM27 5.875c0.621 0 1.125 0.504 1.125 1.125s-0.504 1.125-1.125 1.125-1.125-0.504-1.125-1.125 0.504-1.125 1.125-1.125zM2 16c0-1.103 0.897-2 2-2 0.797 0 1.487 0.469 1.808 1.145-1.045 0.793-1.911 1.707-2.552 2.711-0.735-0.296-1.256-1.016-1.256-1.856zM16 29.625c-6.42 0-11.625-3.414-11.625-7.625s5.205-7.625 11.625-7.625c6.42 0 11.625 3.414 11.625 7.625s-5.205 7.625-11.625 7.625zM28.744 17.856c-0.641-1.003-1.507-1.918-2.552-2.711 0.321-0.676 1.011-1.145 1.808-1.145 1.103 0 2 0.897 2 2 0 0.84-0.52 1.56-1.256 1.856z"></path> </g><g id="697a178be4b26caa53d8cddd9ef7611f0d5792dd236d5db0221d047406ea16cficon-tumblr"> <g> </g> <path d="M26.668 0h-21.334c-2.934 0-5.334 2.4-5.334 5.334v21.332c0 2.936 2.4 5.334 5.334 5.334h21.334c2.933 0 5.332-2.398 5.332-5.334v-21.332c-0-2.933-2.399-5.334-5.332-5.334zM22.866 25.771c-0.942 0.443-1.798 0.756-2.563 0.936-0.765 0.178-1.593 0.267-2.481 0.267-1.010 0-1.605-0.127-2.381-0.381-0.775-0.256-1.438-0.621-1.984-1.090-0.549-0.473-0.928-0.975-1.14-1.506-0.212-0.531-0.317-1.303-0.317-2.313v-7.744h-3v-3.127c0.867-0.281 1.873-0.685 2.49-1.211 0.62-0.527 1.116-1.158 1.49-1.896 0.375-0.736 0.633-1.676 0.774-2.815h3.141v5.108h5.105v3.941h-5.106v5.662c0 1.281-0.017 2.020 0.119 2.383 0.135 0.361 0.473 0.736 0.841 0.953 0.489 0.293 1.047 0.439 1.676 0.439 1.118 0 2.231-0.363 3.336-1.090v3.482z"></path> </g><g id="697a178be4b26caa53d8cddd9ef7611f0d5792dd236d5db0221d047406ea16cficon-twitter"> <g> </g> <path d="M32 6.076c-1.177 0.522-2.443 0.875-3.771 1.034 1.355-0.813 2.396-2.099 2.887-3.632-1.269 0.752-2.674 1.299-4.169 1.593-1.198-1.276-2.904-2.073-4.792-2.073-3.626 0-6.565 2.939-6.565 6.565 0 0.515 0.058 1.016 0.17 1.496-5.456-0.274-10.294-2.888-13.532-6.86-0.565 0.97-0.889 2.097-0.889 3.301 0 2.278 1.159 4.287 2.921 5.465-1.076-0.034-2.088-0.329-2.974-0.821-0.001 0.027-0.001 0.055-0.001 0.083 0 3.181 2.263 5.834 5.266 6.437-0.551 0.15-1.131 0.23-1.73 0.23-0.423 0-0.834-0.041-1.235-0.118 0.835 2.608 3.26 4.506 6.133 4.559-2.247 1.761-5.078 2.81-8.154 2.81-0.53 0-1.052-0.031-1.566-0.092 2.905 1.863 6.356 2.95 10.064 2.95 12.076 0 18.679-10.004 18.679-18.68 0-0.285-0.006-0.568-0.019-0.849 1.283-0.926 2.396-2.082 3.276-3.398z"></path> </g></defs><g id="697a178be4b26caa53d8cddd9ef7611ficon-facebook"> <g> </g> <path d="M26.667 0h-21.333c-2.933 0-5.334 2.4-5.334 5.334v21.332c0 2.936 2.4 5.334 5.334 5.334l21.333-0c2.934 0 5.333-2.398 5.333-5.334v-21.332c0-2.934-2.399-5.334-5.333-5.334zM27.206 16h-5.206v14h-6v-14h-2.891v-4.58h2.891v-2.975c0-4.042 1.744-6.445 6.496-6.445h5.476v4.955h-4.473c-1.328-0.002-1.492 0.692-1.492 1.985l-0.007 2.48h6l-0.794 4.58z"></path> </g><g id="697a178be4b26caa53d8cddd9ef7611ficon-feed"> <g> </g> <path d="M26.667 0h-21.333c-2.934 0-5.334 2.4-5.334 5.334v21.332c0 2.935 2.4 5.334 5.334 5.334h21.333c2.934 0 5.333-2.398 5.333-5.334v-21.332c0-2.934-2.399-5.334-5.333-5.334zM8.717 25.977c-1.499 0-2.717-1.209-2.717-2.707 0-1.49 1.218-2.713 2.717-2.713 1.505 0 2.721 1.223 2.721 2.713-0 1.498-1.216 2.707-2.721 2.707zM15.546 26c0-2.557-0.994-4.963-2.796-6.764-1.804-1.805-4.199-2.801-6.747-2.801v-3.912c7.427 0 13.473 6.045 13.473 13.477l-3.93 0zM22.488 26c0-9.096-7.396-16.498-16.48-16.498v-3.914c11.25 0 20.405 9.16 20.405 20.412l-3.924-0z"></path> </g><g id="697a178be4b26caa53d8cddd9ef7611ficon-github"> <g> </g> <path d="M16 0c-8.837 0-16 7.163-16 16s7.163 16 16 16 16-7.163 16-16-7.163-16-16-16zM25.502 25.502c-1.235 1.235-2.672 2.204-4.272 2.881-0.406 0.172-0.819 0.323-1.238 0.453v-2.398c0-1.26-0.432-2.188-1.297-2.781 0.542-0.052 1.039-0.125 1.492-0.219s0.932-0.229 1.438-0.406 0.958-0.388 1.359-0.633 0.786-0.563 1.156-0.953 0.68-0.833 0.93-1.328 0.448-1.089 0.594-1.781 0.219-1.456 0.219-2.289c0-1.615-0.526-2.99-1.578-4.125 0.479-1.25 0.427-2.609-0.156-4.078l-0.391-0.047c-0.271-0.031-0.758 0.083-1.461 0.344s-1.492 0.688-2.367 1.281c-1.24-0.344-2.526-0.516-3.859-0.516-1.344 0-2.625 0.172-3.844 0.516-0.552-0.375-1.075-0.685-1.57-0.93-0.495-0.245-0.891-0.411-1.188-0.5s-0.573-0.143-0.828-0.164-0.419-0.026-0.492-0.016-0.125 0.021-0.156 0.031c-0.583 1.479-0.635 2.839-0.156 4.078-1.052 1.135-1.578 2.51-1.578 4.125 0 0.833 0.073 1.596 0.219 2.289s0.344 1.286 0.594 1.781 0.56 0.938 0.93 1.328 0.755 0.708 1.156 0.953 0.854 0.456 1.359 0.633 0.984 0.313 1.438 0.406 0.95 0.167 1.492 0.219c-0.854 0.583-1.281 1.51-1.281 2.781v2.445c-0.472-0.14-0.937-0.306-1.394-0.5-1.6-0.677-3.037-1.646-4.272-2.881-1.235-1.235-2.204-2.672-2.881-4.272-0.7-1.655-1.055-3.414-1.055-5.23s0.355-3.575 1.055-5.23c0.677-1.6 1.646-3.037 2.881-4.272s2.672-2.204 4.272-2.881c1.655-0.7 3.415-1.055 5.23-1.055s3.575 0.355 5.23 1.055c1.6 0.677 3.037 1.646 4.272 2.881 1.235 1.235 2.204 2.672 2.881 4.272 0.7 1.655 1.055 3.415 1.055 5.23s-0.355 3.575-1.055 5.23c-0.677 1.6-1.646 3.037-2.881 4.272z"></path> </g><g id="697a178be4b26caa53d8cddd9ef7611ficon-googleplus"> <g> </g> <path d="M0.025 27.177c-0.008-0.079-0.014-0.158-0.018-0.238 0.004 0.080 0.011 0.159 0.018 0.238zM7.372 17.661c2.875 0.086 4.804-2.897 4.308-6.662-0.497-3.765-3.231-6.787-6.106-6.873-2.876-0.085-4.804 2.796-4.308 6.562 0.496 3.765 3.23 6.887 6.106 6.973zM32 8v-2.666c0-2.934-2.399-5.334-5.333-5.334h-21.333c-2.884 0-5.25 2.32-5.33 5.185 1.824-1.606 4.354-2.947 6.965-2.947 2.791 0 11.164 0 11.164 0l-2.498 2.113h-3.54c2.348 0.9 3.599 3.629 3.599 6.429 0 2.351-1.307 4.374-3.153 5.812-1.801 1.403-2.143 1.991-2.143 3.184 0 1.018 1.93 2.75 2.938 3.462 2.949 2.079 3.904 4.010 3.904 7.233 0 0.513-0.064 1.026-0.19 1.53h9.617c2.934 0 5.333-2.398 5.333-5.334v-16.666h-6v6h-2v-6h-6v-2h6v-6h2v6h6zM5.809 23.936c0.675 0 1.294-0.018 1.936-0.018-0.848-0.823-1.52-1.831-1.52-3.074 0-0.738 0.236-1.448 0.567-2.079-0.337 0.024-0.681 0.031-1.035 0.031-2.324 0-4.297-0.752-5.756-1.995v2.101l0 6.304c1.67-0.793 3.653-1.269 5.809-1.269zM0.107 27.727c-0.035-0.171-0.061-0.344-0.079-0.52 0.018 0.176 0.045 0.349 0.079 0.52zM14.233 29.776c-0.471-1.838-2.139-2.749-4.465-4.361-0.846-0.273-1.778-0.434-2.778-0.444-2.801-0.030-5.41 1.092-6.882 2.762 0.498 2.428 2.657 4.267 5.226 4.267h8.951c0.057-0.348 0.084-0.707 0.084-1.076 0-0.392-0.048-0.775-0.137-1.148z"></path> </g><g id="697a178be4b26caa53d8cddd9ef7611ficon-instagram"> <g> </g> <path d="M26.688 0h-21.375c-2.922 0-5.313 2.391-5.313 5.313v21.375c0 2.922 2.391 5.313 5.313 5.313h21.375c2.922 0 5.313-2.391 5.313-5.313v-21.375c0-2.922-2.391-5.313-5.313-5.313zM10.244 14h11.513c0.218 0.627 0.337 1.3 0.337 2 0 3.36-2.734 6.094-6.094 6.094-3.36 0-6.094-2.734-6.094-6.094 0-0.7 0.119-1.373 0.338-2zM28 14.002v11.998c0 1.1-0.9 2-2 2h-20c-1.1 0-2-0.9-2-2v-12h3.128c-0.145 0.644-0.222 1.313-0.222 2 0 5.014 4.079 9.094 9.094 9.094 5.014 0 9.094-4.079 9.094-9.094 0-0.687-0.077-1.356-0.222-2l3.128 0.002zM28 7c0 0.55-0.45 1-1 1h-2c-0.55 0-1-0.45-1-1v-2c0-0.55 0.45-1 1-1h2c0.55 0 1 0.45 1 1v2z"></path> </g><g id="697a178be4b26caa53d8cddd9ef7611ficon-linkedin"> <g> </g> <path d="M26.625 0h-21.25c-2.956 0-5.375 2.419-5.375 5.375v21.25c0 2.956 2.419 5.375 5.375 5.375h21.25c2.956 0 5.375-2.419 5.375-5.375v-21.25c0-2.956-2.419-5.375-5.375-5.375zM12 26h-4v-14h4v14zM10 10c-1.105 0-2-0.895-2-2s0.895-2 2-2 2 0.895 2 2-0.895 2-2 2zM26 26h-4v-8c0-1.105-0.895-2-2-2s-2 0.895-2 2v8h-4v-14h4v2.483c0.825-1.133 2.086-2.483 3.5-2.483 2.485 0 4.5 2.239 4.5 5v9z"></path> </g><g id="697a178be4b26caa53d8cddd9ef7611ficon-pinterest"> <g> </g> <path d="M16 0c-8.837 0-16 7.163-16 16s7.163 16 16 16c8.837 0 16-7.163 16-16s-7.163-16-16-16zM17.551 21.379c-1.454-0.113-2.064-0.833-3.203-1.525-0.627 3.287-1.393 6.438-3.661 8.084-0.7-4.968 1.028-8.699 1.83-12.66-1.368-2.303 0.165-6.939 3.051-5.796 3.551 1.405-3.075 8.563 1.373 9.457 4.644 0.933 6.54-8.058 3.661-10.982-4.161-4.222-12.112-0.096-11.135 5.949 0.238 1.478 1.765 1.926 0.61 3.966-2.663-0.59-3.458-2.691-3.356-5.491 0.165-4.584 4.118-7.793 8.084-8.236 5.015-0.561 9.722 1.841 10.372 6.559 0.732 5.325-2.264 11.092-7.627 10.677z"></path> </g><g id="697a178be4b26caa53d8cddd9ef7611ficon-reddit"> <g> </g> <path d="M8 20c0-1.105 0.895-2 2-2s2 0.895 2 2c0 1.105-0.895 2-2 2-1.105 0-2-0.895-2-2zM20 20c0-1.105 0.895-2 2-2s2 0.895 2 2c0 1.105-0.895 2-2 2-1.105 0-2-0.895-2-2zM20.097 24.274c0.515-0.406 1.262-0.317 1.668 0.198 0.406 0.515 0.317 1.262-0.198 1.668-1.434 1.13-3.619 1.86-5.567 1.86-1.948 0-4.133-0.73-5.567-1.86-0.515-0.406-0.604-1.153-0.198-1.668 0.406-0.515 1.153-0.604 1.668-0.198 0.826 0.651 2.46 1.351 4.097 1.351 1.637 0 3.271-0.7 4.097-1.351zM32 16c0-2.209-1.791-4-4-4-1.504 0-2.812 0.83-3.495 2.057-2.056-1.125-4.561-1.851-7.29-2.019l2.387-5.36 4.569 1.319c0.411 1.167 1.522 2.004 2.83 2.004 1.657 0 3-1.343 3-3s-1.343-3-3-3c-1.142 0-2.136 0.639-2.642 1.579l-5.091-1.47c-0.57-0.164-1.173 0.116-1.414 0.658l-3.243 7.282c-2.661 0.187-5.102 0.907-7.114 2.007-0.683-1.227-1.993-2.056-3.496-2.056-2.209 0-4 1.791-4 4 0 1.635 0.981 3.039 2.387 3.659-0.252 0.751-0.387 1.535-0.387 2.341 0 5.523 6.268 10 14 10 7.732 0 14-4.477 14-10 0-0.806-0.134-1.589-0.387-2.34 1.405-0.62 2.387-2.025 2.387-3.66zM27 5.875c0.621 0 1.125 0.504 1.125 1.125s-0.504 1.125-1.125 1.125-1.125-0.504-1.125-1.125 0.504-1.125 1.125-1.125zM2 16c0-1.103 0.897-2 2-2 0.797 0 1.487 0.469 1.808 1.145-1.045 0.793-1.911 1.707-2.552 2.711-0.735-0.296-1.256-1.016-1.256-1.856zM16 29.625c-6.42 0-11.625-3.414-11.625-7.625s5.205-7.625 11.625-7.625c6.42 0 11.625 3.414 11.625 7.625s-5.205 7.625-11.625 7.625zM28.744 17.856c-0.641-1.003-1.507-1.918-2.552-2.711 0.321-0.676 1.011-1.145 1.808-1.145 1.103 0 2 0.897 2 2 0 0.84-0.52 1.56-1.256 1.856z"></path> </g><g id="697a178be4b26caa53d8cddd9ef7611ficon-soundcloud"> <g> </g> <path d="M26.668 0h-21.334c-2.934 0-5.334 2.4-5.334 5.334v14.666l0.5-2h1l0.5 2-0.5 2h-1l-0.5-2v6.666c0 2.936 2.4 5.334 5.334 5.334h21.334c2.934 0 5.332-2.399 5.332-5.334v-6.631c0 2.19-1.846 3.965-4.125 3.965-0.074 0-11.424-0.006-11.434-0.007-0.246-0.024-0.441-0.226-0.441-0.469v-12.585c0-0.231 0.082-0.35 0.393-0.466 0.801-0.298 1.704-0.474 2.635-0.474 3.803 0 6.922 2.803 7.25 6.377 0.491-0.198 1.031-0.308 1.596-0.308 2.278 0 4.126 1.776 4.126 3.966v-14.701c0-2.934-2.399-5.334-5.332-5.334zM5.5 24h-1l-0.5-4 0.5-4h1l0.5 4-0.5 4zM9.5 24h-1l-0.5-5.086 0.5-4.914h1l0.5 5-0.5 5zM13.5 24h-1l-0.5-7.007 0.5-6.993h1l0.5 6.993-0.5 7.007z"></path> </g><g id="697a178be4b26caa53d8cddd9ef7611ficon-tumblr"> <g> </g> <path d="M26.668 0h-21.334c-2.934 0-5.334 2.4-5.334 5.334v21.332c0 2.936 2.4 5.334 5.334 5.334h21.334c2.933 0 5.332-2.398 5.332-5.334v-21.332c-0-2.933-2.399-5.334-5.332-5.334zM22.866 25.771c-0.942 0.443-1.798 0.756-2.563 0.936-0.765 0.178-1.593 0.267-2.481 0.267-1.010 0-1.605-0.127-2.381-0.381-0.775-0.256-1.438-0.621-1.984-1.090-0.549-0.473-0.928-0.975-1.14-1.506-0.212-0.531-0.317-1.303-0.317-2.313v-7.744h-3v-3.127c0.867-0.281 1.873-0.685 2.49-1.211 0.62-0.527 1.116-1.158 1.49-1.896 0.375-0.736 0.633-1.676 0.774-2.815h3.141v5.108h5.105v3.941h-5.106v5.662c0 1.281-0.017 2.020 0.119 2.383 0.135 0.361 0.473 0.736 0.841 0.953 0.489 0.293 1.047 0.439 1.676 0.439 1.118 0 2.231-0.363 3.336-1.090v3.482z"></path> </g><g id="697a178be4b26caa53d8cddd9ef7611ficon-twitter"> <g> </g> <path d="M32 6.076c-1.177 0.522-2.443 0.875-3.771 1.034 1.355-0.813 2.396-2.099 2.887-3.632-1.269 0.752-2.674 1.299-4.169 1.593-1.198-1.276-2.904-2.073-4.792-2.073-3.626 0-6.565 2.939-6.565 6.565 0 0.515 0.058 1.016 0.17 1.496-5.456-0.274-10.294-2.888-13.532-6.86-0.565 0.97-0.889 2.097-0.889 3.301 0 2.278 1.159 4.287 2.921 5.465-1.076-0.034-2.088-0.329-2.974-0.821-0.001 0.027-0.001 0.055-0.001 0.083 0 3.181 2.263 5.834 5.266 6.437-0.551 0.15-1.131 0.23-1.73 0.23-0.423 0-0.834-0.041-1.235-0.118 0.835 2.608 3.26 4.506 6.133 4.559-2.247 1.761-5.078 2.81-8.154 2.81-0.53 0-1.052-0.031-1.566-0.092 2.905 1.863 6.356 2.95 10.064 2.95 12.076 0 18.679-10.004 18.679-18.68 0-0.285-0.006-0.568-0.019-0.849 1.283-0.926 2.396-2.082 3.276-3.398z"></path> </g><g id="697a178be4b26caa53d8cddd9ef7611ficon-youtube"> <g> </g> <path d="M17.339 22.214v3.768q0 1.196-0.696 1.196-0.411 0-0.804-0.393v-5.375q0.393-0.393 0.804-0.393 0.696 0 0.696 1.196zM23.375 22.232v0.821h-1.607v-0.821q0-1.214 0.804-1.214t0.804 1.214zM6.125 18.339h1.911v-1.679h-5.571v1.679h1.875v10.161h1.786v-10.161zM11.268 28.5h1.589v-8.821h-1.589v6.75q-0.536 0.75-1.018 0.75-0.321 0-0.375-0.375-0.018-0.054-0.018-0.625v-6.5h-1.589v6.982q0 0.875 0.143 1.304 0.214 0.661 1.036 0.661 0.857 0 1.821-1.089v0.964zM18.929 25.857v-3.518q0-1.304-0.161-1.768-0.304-1-1.268-1-0.893 0-1.661 0.964v-3.875h-1.589v11.839h1.589v-0.857q0.804 0.982 1.661 0.982 0.964 0 1.268-0.982 0.161-0.482 0.161-1.786zM24.964 25.679v-0.232h-1.625q0 0.911-0.036 1.089-0.125 0.643-0.714 0.643-0.821 0-0.821-1.232v-1.554h3.196v-1.839q0-1.411-0.482-2.071-0.696-0.911-1.893-0.911-1.214 0-1.911 0.911-0.5 0.661-0.5 2.071v3.089q0 1.411 0.518 2.071 0.696 0.911 1.929 0.911 1.286 0 1.929-0.946 0.321-0.482 0.375-0.964 0.036-0.161 0.036-1.036zM14.107 9.375v-3.75q0-1.232-0.768-1.232t-0.768 1.232v3.75q0 1.25 0.768 1.25t0.768-1.25zM26.946 22.786q0 4.179-0.464 6.25-0.25 1.054-1.036 1.768t-1.821 0.821q-3.286 0.375-9.911 0.375t-9.911-0.375q-1.036-0.107-1.83-0.821t-1.027-1.768q-0.464-2-0.464-6.25 0-4.179 0.464-6.25 0.25-1.054 1.036-1.768t1.839-0.839q3.268-0.357 9.893-0.357t9.911 0.357q1.036 0.125 1.83 0.839t1.027 1.768q0.464 2 0.464 6.25zM9.125 0h1.821l-2.161 7.125v4.839h-1.786v-4.839q-0.25-1.321-1.089-3.786-0.661-1.839-1.161-3.339h1.893l1.268 4.696zM15.732 5.946v3.125q0 1.446-0.5 2.107-0.661 0.911-1.893 0.911-1.196 0-1.875-0.911-0.5-0.679-0.5-2.107v-3.125q0-1.429 0.5-2.089 0.679-0.911 1.875-0.911 1.232 0 1.893 0.911 0.5 0.661 0.5 2.089zM21.714 3.054v8.911h-1.625v-0.982q-0.946 1.107-1.839 1.107-0.821 0-1.054-0.661-0.143-0.429-0.143-1.339v-7.036h1.625v6.554q0 0.589 0.018 0.625 0.054 0.393 0.375 0.393 0.482 0 1.018-0.768v-6.804h1.625z"></path> </g></defs><g id="icon-facebook"> <g> </g> <path d="M26.667 0h-21.333c-2.933 0-5.334 2.4-5.334 5.334v21.332c0 2.936 2.4 5.334 5.334 5.334l21.333-0c2.934 0 5.333-2.398 5.333-5.334v-21.332c0-2.934-2.399-5.334-5.333-5.334zM27.206 16h-5.206v14h-6v-14h-2.891v-4.58h2.891v-2.975c0-4.042 1.744-6.445 6.496-6.445h5.476v4.955h-4.473c-1.328-0.002-1.492 0.692-1.492 1.985l-0.007 2.48h6l-0.794 4.58z"></path> </g><g id="icon-feed"> <g> </g> <path d="M26.667 0h-21.333c-2.934 0-5.334 2.4-5.334 5.334v21.332c0 2.935 2.4 5.334 5.334 5.334h21.333c2.934 0 5.333-2.398 5.333-5.334v-21.332c0-2.934-2.399-5.334-5.333-5.334zM8.717 25.977c-1.499 0-2.717-1.209-2.717-2.707 0-1.49 1.218-2.713 2.717-2.713 1.505 0 2.721 1.223 2.721 2.713-0 1.498-1.216 2.707-2.721 2.707zM15.546 26c0-2.557-0.994-4.963-2.796-6.764-1.804-1.805-4.199-2.801-6.747-2.801v-3.912c7.427 0 13.473 6.045 13.473 13.477l-3.93 0zM22.488 26c0-9.096-7.396-16.498-16.48-16.498v-3.914c11.25 0 20.405 9.16 20.405 20.412l-3.924-0z"></path> </g><g id="icon-github"> <g> </g> <path d="M16 0c-8.837 0-16 7.163-16 16s7.163 16 16 16 16-7.163 16-16-7.163-16-16-16zM25.502 25.502c-1.235 1.235-2.672 2.204-4.272 2.881-0.406 0.172-0.819 0.323-1.238 0.453v-2.398c0-1.26-0.432-2.188-1.297-2.781 0.542-0.052 1.039-0.125 1.492-0.219s0.932-0.229 1.438-0.406 0.958-0.388 1.359-0.633 0.786-0.563 1.156-0.953 0.68-0.833 0.93-1.328 0.448-1.089 0.594-1.781 0.219-1.456 0.219-2.289c0-1.615-0.526-2.99-1.578-4.125 0.479-1.25 0.427-2.609-0.156-4.078l-0.391-0.047c-0.271-0.031-0.758 0.083-1.461 0.344s-1.492 0.688-2.367 1.281c-1.24-0.344-2.526-0.516-3.859-0.516-1.344 0-2.625 0.172-3.844 0.516-0.552-0.375-1.075-0.685-1.57-0.93-0.495-0.245-0.891-0.411-1.188-0.5s-0.573-0.143-0.828-0.164-0.419-0.026-0.492-0.016-0.125 0.021-0.156 0.031c-0.583 1.479-0.635 2.839-0.156 4.078-1.052 1.135-1.578 2.51-1.578 4.125 0 0.833 0.073 1.596 0.219 2.289s0.344 1.286 0.594 1.781 0.56 0.938 0.93 1.328 0.755 0.708 1.156 0.953 0.854 0.456 1.359 0.633 0.984 0.313 1.438 0.406 0.95 0.167 1.492 0.219c-0.854 0.583-1.281 1.51-1.281 2.781v2.445c-0.472-0.14-0.937-0.306-1.394-0.5-1.6-0.677-3.037-1.646-4.272-2.881-1.235-1.235-2.204-2.672-2.881-4.272-0.7-1.655-1.055-3.414-1.055-5.23s0.355-3.575 1.055-5.23c0.677-1.6 1.646-3.037 2.881-4.272s2.672-2.204 4.272-2.881c1.655-0.7 3.415-1.055 5.23-1.055s3.575 0.355 5.23 1.055c1.6 0.677 3.037 1.646 4.272 2.881 1.235 1.235 2.204 2.672 2.881 4.272 0.7 1.655 1.055 3.415 1.055 5.23s-0.355 3.575-1.055 5.23c-0.677 1.6-1.646 3.037-2.881 4.272z"></path> </g><g id="icon-googleplus"> <g> </g> <path d="M0.025 27.177c-0.008-0.079-0.014-0.158-0.018-0.238 0.004 0.080 0.011 0.159 0.018 0.238zM7.372 17.661c2.875 0.086 4.804-2.897 4.308-6.662-0.497-3.765-3.231-6.787-6.106-6.873-2.876-0.085-4.804 2.796-4.308 6.562 0.496 3.765 3.23 6.887 6.106 6.973zM32 8v-2.666c0-2.934-2.399-5.334-5.333-5.334h-21.333c-2.884 0-5.25 2.32-5.33 5.185 1.824-1.606 4.354-2.947 6.965-2.947 2.791 0 11.164 0 11.164 0l-2.498 2.113h-3.54c2.348 0.9 3.599 3.629 3.599 6.429 0 2.351-1.307 4.374-3.153 5.812-1.801 1.403-2.143 1.991-2.143 3.184 0 1.018 1.93 2.75 2.938 3.462 2.949 2.079 3.904 4.010 3.904 7.233 0 0.513-0.064 1.026-0.19 1.53h9.617c2.934 0 5.333-2.398 5.333-5.334v-16.666h-6v6h-2v-6h-6v-2h6v-6h2v6h6zM5.809 23.936c0.675 0 1.294-0.018 1.936-0.018-0.848-0.823-1.52-1.831-1.52-3.074 0-0.738 0.236-1.448 0.567-2.079-0.337 0.024-0.681 0.031-1.035 0.031-2.324 0-4.297-0.752-5.756-1.995v2.101l0 6.304c1.67-0.793 3.653-1.269 5.809-1.269zM0.107 27.727c-0.035-0.171-0.061-0.344-0.079-0.52 0.018 0.176 0.045 0.349 0.079 0.52zM14.233 29.776c-0.471-1.838-2.139-2.749-4.465-4.361-0.846-0.273-1.778-0.434-2.778-0.444-2.801-0.030-5.41 1.092-6.882 2.762 0.498 2.428 2.657 4.267 5.226 4.267h8.951c0.057-0.348 0.084-0.707 0.084-1.076 0-0.392-0.048-0.775-0.137-1.148z"></path> </g><g id="icon-instagram"> <g> </g> <path d="M26.688 0h-21.375c-2.922 0-5.313 2.391-5.313 5.313v21.375c0 2.922 2.391 5.313 5.313 5.313h21.375c2.922 0 5.313-2.391 5.313-5.313v-21.375c0-2.922-2.391-5.313-5.313-5.313zM10.244 14h11.513c0.218 0.627 0.337 1.3 0.337 2 0 3.36-2.734 6.094-6.094 6.094-3.36 0-6.094-2.734-6.094-6.094 0-0.7 0.119-1.373 0.338-2zM28 14.002v11.998c0 1.1-0.9 2-2 2h-20c-1.1 0-2-0.9-2-2v-12h3.128c-0.145 0.644-0.222 1.313-0.222 2 0 5.014 4.079 9.094 9.094 9.094 5.014 0 9.094-4.079 9.094-9.094 0-0.687-0.077-1.356-0.222-2l3.128 0.002zM28 7c0 0.55-0.45 1-1 1h-2c-0.55 0-1-0.45-1-1v-2c0-0.55 0.45-1 1-1h2c0.55 0 1 0.45 1 1v2z"></path> </g><g id="icon-linkedin"> <g> </g> <path d="M26.625 0h-21.25c-2.956 0-5.375 2.419-5.375 5.375v21.25c0 2.956 2.419 5.375 5.375 5.375h21.25c2.956 0 5.375-2.419 5.375-5.375v-21.25c0-2.956-2.419-5.375-5.375-5.375zM12 26h-4v-14h4v14zM10 10c-1.105 0-2-0.895-2-2s0.895-2 2-2 2 0.895 2 2-0.895 2-2 2zM26 26h-4v-8c0-1.105-0.895-2-2-2s-2 0.895-2 2v8h-4v-14h4v2.483c0.825-1.133 2.086-2.483 3.5-2.483 2.485 0 4.5 2.239 4.5 5v9z"></path> </g><g id="icon-pinterest"> <g> </g> <path d="M16 0c-8.837 0-16 7.163-16 16s7.163 16 16 16c8.837 0 16-7.163 16-16s-7.163-16-16-16zM17.551 21.379c-1.454-0.113-2.064-0.833-3.203-1.525-0.627 3.287-1.393 6.438-3.661 8.084-0.7-4.968 1.028-8.699 1.83-12.66-1.368-2.303 0.165-6.939 3.051-5.796 3.551 1.405-3.075 8.563 1.373 9.457 4.644 0.933 6.54-8.058 3.661-10.982-4.161-4.222-12.112-0.096-11.135 5.949 0.238 1.478 1.765 1.926 0.61 3.966-2.663-0.59-3.458-2.691-3.356-5.491 0.165-4.584 4.118-7.793 8.084-8.236 5.015-0.561 9.722 1.841 10.372 6.559 0.732 5.325-2.264 11.092-7.627 10.677z"></path> </g><g id="icon-reddit"> <g> </g> <path d="M8 20c0-1.105 0.895-2 2-2s2 0.895 2 2c0 1.105-0.895 2-2 2-1.105 0-2-0.895-2-2zM20 20c0-1.105 0.895-2 2-2s2 0.895 2 2c0 1.105-0.895 2-2 2-1.105 0-2-0.895-2-2zM20.097 24.274c0.515-0.406 1.262-0.317 1.668 0.198 0.406 0.515 0.317 1.262-0.198 1.668-1.434 1.13-3.619 1.86-5.567 1.86-1.948 0-4.133-0.73-5.567-1.86-0.515-0.406-0.604-1.153-0.198-1.668 0.406-0.515 1.153-0.604 1.668-0.198 0.826 0.651 2.46 1.351 4.097 1.351 1.637 0 3.271-0.7 4.097-1.351zM32 16c0-2.209-1.791-4-4-4-1.504 0-2.812 0.83-3.495 2.057-2.056-1.125-4.561-1.851-7.29-2.019l2.387-5.36 4.569 1.319c0.411 1.167 1.522 2.004 2.83 2.004 1.657 0 3-1.343 3-3s-1.343-3-3-3c-1.142 0-2.136 0.639-2.642 1.579l-5.091-1.47c-0.57-0.164-1.173 0.116-1.414 0.658l-3.243 7.282c-2.661 0.187-5.102 0.907-7.114 2.007-0.683-1.227-1.993-2.056-3.496-2.056-2.209 0-4 1.791-4 4 0 1.635 0.981 3.039 2.387 3.659-0.252 0.751-0.387 1.535-0.387 2.341 0 5.523 6.268 10 14 10 7.732 0 14-4.477 14-10 0-0.806-0.134-1.589-0.387-2.34 1.405-0.62 2.387-2.025 2.387-3.66zM27 5.875c0.621 0 1.125 0.504 1.125 1.125s-0.504 1.125-1.125 1.125-1.125-0.504-1.125-1.125 0.504-1.125 1.125-1.125zM2 16c0-1.103 0.897-2 2-2 0.797 0 1.487 0.469 1.808 1.145-1.045 0.793-1.911 1.707-2.552 2.711-0.735-0.296-1.256-1.016-1.256-1.856zM16 29.625c-6.42 0-11.625-3.414-11.625-7.625s5.205-7.625 11.625-7.625c6.42 0 11.625 3.414 11.625 7.625s-5.205 7.625-11.625 7.625zM28.744 17.856c-0.641-1.003-1.507-1.918-2.552-2.711 0.321-0.676 1.011-1.145 1.808-1.145 1.103 0 2 0.897 2 2 0 0.84-0.52 1.56-1.256 1.856z"></path> </g><g id="icon-soundcloud"> <g> </g> <path d="M26.668 0h-21.334c-2.934 0-5.334 2.4-5.334 5.334v14.666l0.5-2h1l0.5 2-0.5 2h-1l-0.5-2v6.666c0 2.936 2.4 5.334 5.334 5.334h21.334c2.934 0 5.332-2.399 5.332-5.334v-6.631c0 2.19-1.846 3.965-4.125 3.965-0.074 0-11.424-0.006-11.434-0.007-0.246-0.024-0.441-0.226-0.441-0.469v-12.585c0-0.231 0.082-0.35 0.393-0.466 0.801-0.298 1.704-0.474 2.635-0.474 3.803 0 6.922 2.803 7.25 6.377 0.491-0.198 1.031-0.308 1.596-0.308 2.278 0 4.126 1.776 4.126 3.966v-14.701c0-2.934-2.399-5.334-5.332-5.334zM5.5 24h-1l-0.5-4 0.5-4h1l0.5 4-0.5 4zM9.5 24h-1l-0.5-5.086 0.5-4.914h1l0.5 5-0.5 5zM13.5 24h-1l-0.5-7.007 0.5-6.993h1l0.5 6.993-0.5 7.007z"></path> </g><g id="icon-tumblr"> <g> </g> <path d="M26.668 0h-21.334c-2.934 0-5.334 2.4-5.334 5.334v21.332c0 2.936 2.4 5.334 5.334 5.334h21.334c2.933 0 5.332-2.398 5.332-5.334v-21.332c-0-2.933-2.399-5.334-5.332-5.334zM22.866 25.771c-0.942 0.443-1.798 0.756-2.563 0.936-0.765 0.178-1.593 0.267-2.481 0.267-1.010 0-1.605-0.127-2.381-0.381-0.775-0.256-1.438-0.621-1.984-1.090-0.549-0.473-0.928-0.975-1.14-1.506-0.212-0.531-0.317-1.303-0.317-2.313v-7.744h-3v-3.127c0.867-0.281 1.873-0.685 2.49-1.211 0.62-0.527 1.116-1.158 1.49-1.896 0.375-0.736 0.633-1.676 0.774-2.815h3.141v5.108h5.105v3.941h-5.106v5.662c0 1.281-0.017 2.020 0.119 2.383 0.135 0.361 0.473 0.736 0.841 0.953 0.489 0.293 1.047 0.439 1.676 0.439 1.118 0 2.231-0.363 3.336-1.090v3.482z"></path> </g><g id="icon-twitter"> <g> </g> <path d="M32 6.076c-1.177 0.522-2.443 0.875-3.771 1.034 1.355-0.813 2.396-2.099 2.887-3.632-1.269 0.752-2.674 1.299-4.169 1.593-1.198-1.276-2.904-2.073-4.792-2.073-3.626 0-6.565 2.939-6.565 6.565 0 0.515 0.058 1.016 0.17 1.496-5.456-0.274-10.294-2.888-13.532-6.86-0.565 0.97-0.889 2.097-0.889 3.301 0 2.278 1.159 4.287 2.921 5.465-1.076-0.034-2.088-0.329-2.974-0.821-0.001 0.027-0.001 0.055-0.001 0.083 0 3.181 2.263 5.834 5.266 6.437-0.551 0.15-1.131 0.23-1.73 0.23-0.423 0-0.834-0.041-1.235-0.118 0.835 2.608 3.26 4.506 6.133 4.559-2.247 1.761-5.078 2.81-8.154 2.81-0.53 0-1.052-0.031-1.566-0.092 2.905 1.863 6.356 2.95 10.064 2.95 12.076 0 18.679-10.004 18.679-18.68 0-0.285-0.006-0.568-0.019-0.849 1.283-0.926 2.396-2.082 3.276-3.398z"></path> </g><g id="icon-youtube"> <g> </g> <path d="M17.339 22.214v3.768q0 1.196-0.696 1.196-0.411 0-0.804-0.393v-5.375q0.393-0.393 0.804-0.393 0.696 0 0.696 1.196zM23.375 22.232v0.821h-1.607v-0.821q0-1.214 0.804-1.214t0.804 1.214zM6.125 18.339h1.911v-1.679h-5.571v1.679h1.875v10.161h1.786v-10.161zM11.268 28.5h1.589v-8.821h-1.589v6.75q-0.536 0.75-1.018 0.75-0.321 0-0.375-0.375-0.018-0.054-0.018-0.625v-6.5h-1.589v6.982q0 0.875 0.143 1.304 0.214 0.661 1.036 0.661 0.857 0 1.821-1.089v0.964zM18.929 25.857v-3.518q0-1.304-0.161-1.768-0.304-1-1.268-1-0.893 0-1.661 0.964v-3.875h-1.589v11.839h1.589v-0.857q0.804 0.982 1.661 0.982 0.964 0 1.268-0.982 0.161-0.482 0.161-1.786zM24.964 25.679v-0.232h-1.625q0 0.911-0.036 1.089-0.125 0.643-0.714 0.643-0.821 0-0.821-1.232v-1.554h3.196v-1.839q0-1.411-0.482-2.071-0.696-0.911-1.893-0.911-1.214 0-1.911 0.911-0.5 0.661-0.5 2.071v3.089q0 1.411 0.518 2.071 0.696 0.911 1.929 0.911 1.286 0 1.929-0.946 0.321-0.482 0.375-0.964 0.036-0.161 0.036-1.036zM14.107 9.375v-3.75q0-1.232-0.768-1.232t-0.768 1.232v3.75q0 1.25 0.768 1.25t0.768-1.25zM26.946 22.786q0 4.179-0.464 6.25-0.25 1.054-1.036 1.768t-1.821 0.821q-3.286 0.375-9.911 0.375t-9.911-0.375q-1.036-0.107-1.83-0.821t-1.027-1.768q-0.464-2-0.464-6.25 0-4.179 0.464-6.25 0.25-1.054 1.036-1.768t1.839-0.839q3.268-0.357 9.893-0.357t9.911 0.357q1.036 0.125 1.83 0.839t1.027 1.768q0.464 2 0.464 6.25zM9.125 0h1.821l-2.161 7.125v4.839h-1.786v-4.839q-0.25-1.321-1.089-3.786-0.661-1.839-1.161-3.339h1.893l1.268 4.696zM15.732 5.946v3.125q0 1.446-0.5 2.107-0.661 0.911-1.893 0.911-1.196 0-1.875-0.911-0.5-0.679-0.5-2.107v-3.125q0-1.429 0.5-2.089 0.679-0.911 1.875-0.911 1.232 0 1.893 0.911 0.5 0.661 0.5 2.089zM21.714 3.054v8.911h-1.625v-0.982q-0.946 1.107-1.839 1.107-0.821 0-1.054-0.661-0.143-0.429-0.143-1.339v-7.036h1.625v6.554q0 0.589 0.018 0.625 0.054 0.393 0.375 0.393 0.482 0 1.018-0.768v-6.804h1.625z"></path> </g></defs></svg>