<svg viewBox="0 0 100 100"><defs><g id="icon-facebook"> <g> </g> <path d="M26.667 0h-21.333c-2.933 0-5.334 2.4-5.334 5.334v21.332c0 2.936 2.4 5.334 5.334 5.334l21.333-0c2.934 0 5.333-2.398 5.333-5.334v-21.332c0-2.934-2.399-5.334-5.333-5.334zM27.206 16h-5.206v14h-6v-14h-2.891v-4.58h2.891v-2.975c0-4.042 1.744-6.445 6.496-6.445h5.476v4.955h-4.473c-1.328-0.002-1.492 0.692-1.492 1.985l-0.007 2.48h6l-0.794 4.58z" fill="#000000"></path> </g><g id="icon-feed"> <g> </g> <path d="M26.667 0h-21.333c-2.934 0-5.334 2.4-5.334 5.334v21.332c0 2.935 2.4 5.334 5.334 5.334h21.333c2.934 0 5.333-2.398 5.333-5.334v-21.332c0-2.934-2.399-5.334-5.333-5.334zM8.717 25.977c-1.499 0-2.717-1.209-2.717-2.707 0-1.49 1.218-2.713 2.717-2.713 1.505 0 2.721 1.223 2.721 2.713-0 1.498-1.216 2.707-2.721 2.707zM15.546 26c0-2.557-0.994-4.963-2.796-6.764-1.804-1.805-4.199-2.801-6.747-2.801v-3.912c7.427 0 13.473 6.045 13.473 13.477l-3.93 0zM22.488 26c0-9.096-7.396-16.498-16.48-16.498v-3.914c11.25 0 20.405 9.16 20.405 20.412l-3.924-0z" fill="#000000"></path> </g><g id="icon-googleplus"> <g> </g> <path d="M0.025 27.177c-0.008-0.079-0.014-0.158-0.018-0.238 0.004 0.080 0.011 0.159 0.018 0.238zM7.372 17.661c2.875 0.086 4.804-2.897 4.308-6.662-0.497-3.765-3.231-6.787-6.106-6.873-2.876-0.085-4.804 2.796-4.308 6.562 0.496 3.765 3.23 6.887 6.106 6.973zM32 8v-2.666c0-2.934-2.399-5.334-5.333-5.334h-21.333c-2.884 0-5.25 2.32-5.33 5.185 1.824-1.606 4.354-2.947 6.965-2.947 2.791 0 11.164 0 11.164 0l-2.498 2.113h-3.54c2.348 0.9 3.599 3.629 3.599 6.429 0 2.351-1.307 4.374-3.153 5.812-1.801 1.403-2.143 1.991-2.143 3.184 0 1.018 1.93 2.75 2.938 3.462 2.949 2.079 3.904 4.010 3.904 7.233 0 0.513-0.064 1.026-0.19 1.53h9.617c2.934 0 5.333-2.398 5.333-5.334v-16.666h-6v6h-2v-6h-6v-2h6v-6h2v6h6zM5.809 23.936c0.675 0 1.294-0.018 1.936-0.018-0.848-0.823-1.52-1.831-1.52-3.074 0-0.738 0.236-1.448 0.567-2.079-0.337 0.024-0.681 0.031-1.035 0.031-2.324 0-4.297-0.752-5.756-1.995v2.101l0 6.304c1.67-0.793 3.653-1.269 5.809-1.269zM0.107 27.727c-0.035-0.171-0.061-0.344-0.079-0.52 0.018 0.176 0.045 0.349 0.079 0.52zM14.233 29.776c-0.471-1.838-2.139-2.749-4.465-4.361-0.846-0.273-1.778-0.434-2.778-0.444-2.801-0.030-5.41 1.092-6.882 2.762 0.498 2.428 2.657 4.267 5.226 4.267h8.951c0.057-0.348 0.084-0.707 0.084-1.076 0-0.392-0.048-0.775-0.137-1.148z" fill="#000000"></path> </g><g id="icon-linkedin"> <g> </g> <path d="M26.625 0h-21.25c-2.956 0-5.375 2.419-5.375 5.375v21.25c0 2.956 2.419 5.375 5.375 5.375h21.25c2.956 0 5.375-2.419 5.375-5.375v-21.25c0-2.956-2.419-5.375-5.375-5.375zM12 26h-4v-14h4v14zM10 10c-1.105 0-2-0.895-2-2s0.895-2 2-2 2 0.895 2 2-0.895 2-2 2zM26 26h-4v-8c0-1.105-0.895-2-2-2s-2 0.895-2 2v8h-4v-14h4v2.483c0.825-1.133 2.086-2.483 3.5-2.483 2.485 0 4.5 2.239 4.5 5v9z" fill="#000000"></path> </g><g id="icon-reddit"> <g> </g> <path d="M8 20c0-1.105 0.895-2 2-2s2 0.895 2 2c0 1.105-0.895 2-2 2-1.105 0-2-0.895-2-2zM20 20c0-1.105 0.895-2 2-2s2 0.895 2 2c0 1.105-0.895 2-2 2-1.105 0-2-0.895-2-2zM20.097 24.274c0.515-0.406 1.262-0.317 1.668 0.198 0.406 0.515 0.317 1.262-0.198 1.668-1.434 1.13-3.619 1.86-5.567 1.86-1.948 0-4.133-0.73-5.567-1.86-0.515-0.406-0.604-1.153-0.198-1.668 0.406-0.515 1.153-0.604 1.668-0.198 0.826 0.651 2.46 1.351 4.097 1.351 1.637 0 3.271-0.7 4.097-1.351zM32 16c0-2.209-1.791-4-4-4-1.504 0-2.812 0.83-3.495 2.057-2.056-1.125-4.561-1.851-7.29-2.019l2.387-5.36 4.569 1.319c0.411 1.167 1.522 2.004 2.83 2.004 1.657 0 3-1.343 3-3s-1.343-3-3-3c-1.142 0-2.136 0.639-2.642 1.579l-5.091-1.47c-0.57-0.164-1.173 0.116-1.414 0.658l-3.243 7.282c-2.661 0.187-5.102 0.907-7.114 2.007-0.683-1.227-1.993-2.056-3.496-2.056-2.209 0-4 1.791-4 4 0 1.635 0.981 3.039 2.387 3.659-0.252 0.751-0.387 1.535-0.387 2.341 0 5.523 6.268 10 14 10 7.732 0 14-4.477 14-10 0-0.806-0.134-1.589-0.387-2.34 1.405-0.62 2.387-2.025 2.387-3.66zM27 5.875c0.621 0 1.125 0.504 1.125 1.125s-0.504 1.125-1.125 1.125-1.125-0.504-1.125-1.125 0.504-1.125 1.125-1.125zM2 16c0-1.103 0.897-2 2-2 0.797 0 1.487 0.469 1.808 1.145-1.045 0.793-1.911 1.707-2.552 2.711-0.735-0.296-1.256-1.016-1.256-1.856zM16 29.625c-6.42 0-11.625-3.414-11.625-7.625s5.205-7.625 11.625-7.625c6.42 0 11.625 3.414 11.625 7.625s-5.205 7.625-11.625 7.625zM28.744 17.856c-0.641-1.003-1.507-1.918-2.552-2.711 0.321-0.676 1.011-1.145 1.808-1.145 1.103 0 2 0.897 2 2 0 0.84-0.52 1.56-1.256 1.856z" fill="#000000"></path> </g><g id="icon-tumblr"> <g> </g> <path d="M26.668 0h-21.334c-2.934 0-5.334 2.4-5.334 5.334v21.332c0 2.936 2.4 5.334 5.334 5.334h21.334c2.933 0 5.332-2.398 5.332-5.334v-21.332c-0-2.933-2.399-5.334-5.332-5.334zM22.866 25.771c-0.942 0.443-1.798 0.756-2.563 0.936-0.765 0.178-1.593 0.267-2.481 0.267-1.010 0-1.605-0.127-2.381-0.381-0.775-0.256-1.438-0.621-1.984-1.090-0.549-0.473-0.928-0.975-1.14-1.506-0.212-0.531-0.317-1.303-0.317-2.313v-7.744h-3v-3.127c0.867-0.281 1.873-0.685 2.49-1.211 0.62-0.527 1.116-1.158 1.49-1.896 0.375-0.736 0.633-1.676 0.774-2.815h3.141v5.108h5.105v3.941h-5.106v5.662c0 1.281-0.017 2.020 0.119 2.383 0.135 0.361 0.473 0.736 0.841 0.953 0.489 0.293 1.047 0.439 1.676 0.439 1.118 0 2.231-0.363 3.336-1.090v3.482z" fill="#000000"></path> </g><g id="icon-twitter"> <g> </g> <path d="M32 6.076c-1.177 0.522-2.443 0.875-3.771 1.034 1.355-0.813 2.396-2.099 2.887-3.632-1.269 0.752-2.674 1.299-4.169 1.593-1.198-1.276-2.904-2.073-4.792-2.073-3.626 0-6.565 2.939-6.565 6.565 0 0.515 0.058 1.016 0.17 1.496-5.456-0.274-10.294-2.888-13.532-6.86-0.565 0.97-0.889 2.097-0.889 3.301 0 2.278 1.159 4.287 2.921 5.465-1.076-0.034-2.088-0.329-2.974-0.821-0.001 0.027-0.001 0.055-0.001 0.083 0 3.181 2.263 5.834 5.266 6.437-0.551 0.15-1.131 0.23-1.73 0.23-0.423 0-0.834-0.041-1.235-0.118 0.835 2.608 3.26 4.506 6.133 4.559-2.247 1.761-5.078 2.81-8.154 2.81-0.53 0-1.052-0.031-1.566-0.092 2.905 1.863 6.356 2.95 10.064 2.95 12.076 0 18.679-10.004 18.679-18.68 0-0.285-0.006-0.568-0.019-0.849 1.283-0.926 2.396-2.082 3.276-3.398z" fill="#000000"></path> </g></defs></svg>